<svg version="1.1" id="Layer_1" xmlns="http://www.w3.org/2000/svg" xmlns:xlink="http://www.w3.org/1999/xlink" x="0px" y="0px"
	 width="100%" viewBox="0 0 224 192" enable-background="new 0 0 224 192" xml:space="preserve">
<path fill="#000000" opacity="1.000000" stroke="none" 
	d="
M132.416656,193.000000 
	C129.658112,189.588226 126.624809,186.704559 124.864380,182.824692 
	C123.540810,179.907639 120.663925,179.313110 117.650337,179.368088 
	C112.490738,179.462234 107.323830,179.686630 102.170784,179.520889 
	C75.323502,178.657379 54.571812,166.354065 40.058716,144.296082 
	C9.368031,97.650307 32.932457,35.227299 87.816032,22.474390 
	C129.368774,12.819077 168.497757,34.542385 182.085556,74.395592 
	C188.366898,92.818909 188.054367,111.287857 180.882584,129.514557 
	C180.456451,130.597580 180.080750,131.703430 179.751572,132.819321 
	C179.675873,133.075882 179.889496,133.417770 180.136063,134.344864 
	C185.668533,130.103119 190.813171,124.874962 199.153641,127.463463 
	C197.365494,132.722458 193.764359,136.419434 190.459549,140.222473 
	C186.967911,144.240524 181.145325,144.259903 176.818420,147.803009 
	C188.016159,146.328888 196.483521,151.706161 205.031403,157.467392 
	C203.762253,160.318619 201.565857,160.087494 199.451355,160.269638 
	C190.813721,161.013840 182.567505,159.549469 174.567490,156.278946 
	C172.183548,155.304337 169.622253,154.034744 166.944153,156.421783 
	C169.000336,161.026596 174.277649,162.345490 178.280350,167.305466 
	C170.963364,165.614532 170.301270,172.052795 166.136108,174.107422 
	C159.239777,177.509277 152.234528,177.869339 144.776688,177.338333 
	C151.747620,180.582550 156.513962,185.703064 159.848511,192.696228 
	C155.975449,193.000000 151.950912,193.000000 147.278061,192.723785 
	C141.941437,188.406235 139.151627,182.102646 132.211426,179.191940 
	C132.661575,185.143845 135.823669,188.706757 137.000000,193.000000 
	C135.611115,193.000000 134.222214,193.000000 132.416656,193.000000 
M64.810738,35.286655 
	C38.717079,53.776146 26.481026,78.333847 30.296206,110.770287 
	C33.647724,139.264725 57.930885,167.437363 86.280251,174.665466 
	C96.173477,177.187912 106.019043,176.011414 115.929420,175.879562 
	C119.615883,175.830505 122.057953,174.908875 123.960243,171.460785 
	C128.413940,163.388031 135.458908,160.380020 144.552811,162.060654 
	C149.125290,162.905701 154.247208,158.837296 154.693878,154.211456 
	C155.093018,150.077698 155.491333,145.930191 157.430786,142.148956 
	C160.052444,137.037643 166.046600,133.219620 170.272736,134.070145 
	C170.312729,138.433792 166.934860,142.009583 166.945816,146.909531 
	C168.765289,144.670151 170.395599,142.981201 171.664413,141.054214 
	C189.872253,113.401360 186.757965,74.493622 164.816727,49.607582 
	C140.125839,21.602858 99.351357,14.580374 64.810738,35.286655 
M155.278229,167.430267 
	C158.579910,166.154800 162.156342,166.931824 166.347870,165.982635 
	C162.766281,164.482376 160.780151,159.895355 156.856949,162.603043 
	C149.864609,167.429001 142.611374,171.668716 134.821777,175.032532 
	C134.216476,175.293915 133.208740,175.730148 134.000595,177.256836 
	C138.518234,177.132339 142.679550,175.419495 145.954285,172.378693 
	C148.509964,170.005569 151.275238,168.557327 155.278229,167.430267 
z"/>
<path fill="#000000" opacity="1.000000" stroke="none" 
	d="
M90.082962,101.586685 
	C88.827690,104.066383 90.015831,106.851074 87.528595,108.840271 
	C85.889107,99.112633 86.818390,89.362717 86.673119,79.145065 
	C89.337120,81.273605 89.358650,81.273216 89.456001,86.651245 
	C89.506432,89.436707 89.464874,92.223846 89.464874,95.381104 
	C94.706200,94.487968 95.855988,88.077591 101.413513,87.816132 
	C101.334152,90.676079 99.303055,91.921478 97.845451,93.119843 
	C94.375969,95.972275 94.034554,98.555565 97.479553,101.598656 
	C98.802483,102.767258 99.525085,104.640900 101.911110,105.188049 
	C103.361748,100.227867 102.363083,94.040329 108.279198,91.476318 
	C112.099571,89.820610 116.152557,90.162933 120.012779,91.354897 
	C124.422920,92.716660 125.802094,95.582527 124.044395,101.606102 
	C122.321152,95.275154 118.948227,92.931702 113.564041,93.418854 
	C109.261917,93.808113 106.544556,95.596642 106.210724,99.961655 
	C105.919441,103.770149 105.983040,107.614601 106.057182,111.439919 
	C106.143036,115.869186 108.418228,118.826096 112.830360,119.378731 
	C117.202805,119.926399 121.240250,119.121025 122.793694,114.052368 
	C123.092201,113.078339 123.446571,112.164162 125.655182,111.980034 
	C126.149475,115.974533 124.931786,119.076561 121.371750,120.780853 
	C114.845627,123.905090 105.323868,123.614784 102.596779,113.454010 
	C101.139015,108.022575 95.820595,105.064926 92.446663,100.825661 
	C91.861366,100.090256 90.910896,100.656639 90.082962,101.586685 
z"/>
<path fill="#000000" opacity="1.000000" stroke="none" 
	d="
M101.373413,148.816681 
	C99.126022,148.277740 96.921471,149.064880 94.870621,146.464706 
	C102.350311,145.150787 109.180809,145.385315 116.067245,147.054031 
	C111.425812,148.792084 106.599564,148.680237 101.373413,148.816681 
z"/>
</svg>